<svg xmlns="http://www.w3.org/2000/svg" width="256" height="256" viewBox="0 0 100 100"><rect width="100" height="100" rx="20" fill="#0a4d8f"></rect><path d="M17.60 57.61L17.60 74.70Q16.87 74.87 15.53 75.11Q14.20 75.35 12.66 75.35L12.66 75.35Q9.58 75.35 8.33 74.22Q7.07 73.09 7.07 70.41L7.07 70.41L7.07 29.75Q7.07 28.21 7.88 27.40Q8.69 26.59 10.15 26.10L10.15 26.10Q12.74 25.21 16.26 24.85Q19.79 24.48 23.51 24.48L23.51 24.48Q34.20 24.48 39.55 28.90Q44.90 33.31 44.90 41.09L44.90 41.09Q44.90 46.19 42.22 49.96Q39.55 53.73 34.85 55.75L34.85 55.75Q38.42 60.37 41.70 64.54Q44.98 68.71 46.60 71.06L46.60 71.06Q45.95 73.17 44.33 74.34Q42.71 75.52 40.77 75.52L40.77 75.52Q38.25 75.52 36.92 74.38Q35.58 73.25 34.29 71.30L34.29 71.30L25.13 57.61L17.60 57.61ZM17.44 49.35L24.08 49.35Q28.70 49.35 31.49 47.33Q34.29 45.30 34.29 41.17L34.29 41.17Q34.29 32.99 23.35 32.99L23.35 32.99Q21.73 32.99 20.23 33.15Q18.73 33.31 17.44 33.48L17.44 33.48L17.44 49.35ZM72.44 58.42L66.12 58.42L66.12 74.70Q65.39 74.87 64.05 75.11Q62.72 75.35 61.18 75.35L61.18 75.35Q58.10 75.35 56.84 74.22Q55.59 73.09 55.59 70.41L55.59 70.41L55.59 29.75Q55.59 28.21 56.40 27.40Q57.21 26.59 58.67 26.10L58.67 26.10Q59.96 25.70 61.54 25.38Q63.12 25.05 64.82 24.85Q66.52 24.65 68.22 24.57Q69.93 24.48 71.46 24.48L71.46 24.48Q82.16 24.48 87.54 29.06Q92.93 33.64 92.93 41.41L92.93 41.41Q92.93 49.19 87.66 53.81Q82.40 58.42 72.44 58.42L72.44 58.42ZM66.04 50L71.79 50Q76.65 50 79.44 47.89Q82.24 45.79 82.24 41.41L82.24 41.41Q82.24 37.20 79.61 35.10Q76.97 32.99 71.95 32.99L71.95 32.99Q68.47 32.99 66.04 33.48L66.04 33.48L66.04 50Z" fill="#ffffff"></path></svg>